<svg width="46" height="46" viewBox="0 0 46 46" fill="none" xmlns="http://www.w3.org/2000/svg">
<path d="M10.61 32.71C10.73 32.67 11.0567 32.6267 11.59 32.58C12.1233 32.5267 12.6067 32.5 13.04 32.5C13.48 32.5 13.82 32.52 14.06 32.56C14.0667 32.5867 14.07 32.62 14.07 32.66C14.07 32.6933 14.05 32.7767 14.01 32.91C13.9767 33.0433 13.95 33.13 13.93 33.17C13.8767 33.2233 13.7267 33.2633 13.48 33.29L15.39 38.82L16.34 38.9C16.34 39.0867 16.2833 39.2867 16.17 39.5H13.87L13.84 39.15C13.9933 39.07 14.2167 39 14.51 38.94L14 37.51H11.21L10.74 38.82L11.55 38.9C11.55 39.0867 11.4933 39.2867 11.38 39.5H9.08L9.05 39.15C9.31 39.0567 9.58667 38.9833 9.88 38.93L11.82 33.26C11.2267 33.1933 10.81 33.1133 10.57 33.02L10.61 32.71ZM13.21 35.28L12.68 33.32C12.64 33.3133 12.5833 33.31 12.51 33.31L11.97 35.35L11.39 36.87H13.82L13.21 35.28ZM19.1326 39.62C18.3326 39.62 17.7359 39.3967 17.3426 38.95C16.9492 38.4967 16.7526 37.8533 16.7526 37.02C16.7526 35.2067 17.5592 34.3 19.1726 34.3C19.4326 34.3 19.7026 34.34 19.9826 34.42C20.2626 34.4933 20.4826 34.5767 20.6426 34.67C20.6226 35.29 20.5592 35.73 20.4526 35.99C20.3326 36.0233 20.2359 36.04 20.1626 36.04H19.9926C19.9592 36.04 19.9192 36.0367 19.8726 36.03L19.6226 34.93C19.4026 34.91 19.2759 34.9 19.2426 34.9C18.7626 34.9 18.3792 35.0467 18.0926 35.34C17.8126 35.6333 17.6726 36.1267 17.6726 36.82C17.6726 37.5133 17.7792 38.04 17.9926 38.4C18.2126 38.76 18.6326 38.94 19.2526 38.94C19.5459 38.94 20.0059 38.8 20.6326 38.52C20.7592 38.6933 20.8259 38.8467 20.8326 38.98C20.4926 39.18 20.1592 39.3367 19.8326 39.45C19.5059 39.5633 19.2726 39.62 19.1326 39.62ZM25.4894 36.23L25.4394 38.81C25.726 38.83 26.0127 38.8767 26.2994 38.95L26.2794 39.3C26.1727 39.3533 25.9794 39.4133 25.6994 39.48C25.426 39.54 25.156 39.57 24.8894 39.57C24.7694 39.33 24.7027 39.1 24.6894 38.88C23.9294 39.38 23.396 39.63 23.0894 39.63C22.616 39.63 22.236 39.5033 21.9494 39.25C21.6627 38.9967 21.5194 38.6433 21.5194 38.19C21.5194 37.1433 22.1594 36.6033 23.4394 36.57C24.186 36.55 24.5627 36.54 24.5694 36.54L24.5594 36.2C24.546 35.74 24.4594 35.41 24.2994 35.21C24.1394 35.0033 23.8527 34.9 23.4394 34.9C23.266 34.9 23.0794 34.94 22.8794 35.02L22.6394 36.02C22.606 36.0267 22.5494 36.03 22.4694 36.03L22.0594 36C21.9527 35.7133 21.896 35.3167 21.8894 34.81C22.016 34.7433 22.306 34.6433 22.7594 34.51C23.2127 34.37 23.5027 34.3 23.6294 34.3C24.3094 34.3 24.7894 34.45 25.0694 34.75C25.3494 35.05 25.4894 35.5433 25.4894 36.23ZM23.3094 38.95C23.5027 38.95 23.9494 38.7333 24.6494 38.3L24.5994 37.05C24.146 37.09 23.766 37.1267 23.4594 37.16C23.1527 37.1933 22.906 37.2833 22.7194 37.43C22.5327 37.57 22.4394 37.7933 22.4394 38.1C22.4394 38.6667 22.7294 38.95 23.3094 38.95ZM29.93 35.14C29.8967 35.1067 29.8233 35.09 29.71 35.09C29.5967 35.09 29.4267 35.13 29.2 35.21C28.98 35.29 28.78 35.3833 28.6 35.49C28.56 36.97 28.5333 38.08 28.52 38.82L29.36 38.9C29.36 39.0867 29.3033 39.2867 29.19 39.5H26.89L26.86 39.15C27.1667 39.0433 27.4667 38.9633 27.76 38.91C27.72 37.2167 27.6867 35.9633 27.66 35.15C27.2933 35.13 27 35.09 26.78 35.03L26.82 34.51C27.1733 34.41 27.6967 34.36 28.39 34.36C28.4967 34.5267 28.5633 34.74 28.59 35C29.3567 34.5333 29.8133 34.3 29.96 34.3C30.1067 34.3 30.2767 34.33 30.47 34.39C30.6633 34.4433 30.8067 34.5033 30.9 34.57C30.9 35.2367 30.8367 35.78 30.71 36.2C30.6167 36.2267 30.5067 36.24 30.38 36.24C30.26 36.24 30.1767 36.2367 30.13 36.23L29.93 35.14ZM35.3722 36.23L35.3222 38.81C35.6089 38.83 35.8955 38.8767 36.1822 38.95L36.1622 39.3C36.0555 39.3533 35.8622 39.4133 35.5822 39.48C35.3089 39.54 35.0389 39.57 34.7722 39.57C34.6522 39.33 34.5855 39.1 34.5722 38.88C33.8122 39.38 33.2789 39.63 32.9722 39.63C32.4989 39.63 32.1189 39.5033 31.8322 39.25C31.5455 38.9967 31.4022 38.6433 31.4022 38.19C31.4022 37.1433 32.0422 36.6033 33.3222 36.57C34.0689 36.55 34.4455 36.54 34.4522 36.54L34.4422 36.2C34.4289 35.74 34.3422 35.41 34.1822 35.21C34.0222 35.0033 33.7355 34.9 33.3222 34.9C33.1489 34.9 32.9622 34.94 32.7622 35.02L32.5222 36.02C32.4889 36.0267 32.4322 36.03 32.3522 36.03L31.9422 36C31.8355 35.7133 31.7789 35.3167 31.7722 34.81C31.8989 34.7433 32.1889 34.6433 32.6422 34.51C33.0955 34.37 33.3855 34.3 33.5122 34.3C34.1922 34.3 34.6722 34.45 34.9522 34.75C35.2322 35.05 35.3722 35.5433 35.3722 36.23ZM33.1922 38.95C33.3855 38.95 33.8322 38.7333 34.5322 38.3L34.4822 37.05C34.0289 37.09 33.6489 37.1267 33.3422 37.16C33.0355 37.1933 32.7889 37.2833 32.6022 37.43C32.4155 37.57 32.3222 37.7933 32.3222 38.1C32.3222 38.6667 32.6122 38.95 33.1922 38.95Z" fill="#C3BFBF"/>
<path d="M18.8333 10.7917V6.625M27.1667 10.7917V6.625M17.7917 14.9583H28.2083M15.7083 25.375H30.2917C30.8442 25.375 31.3741 25.1555 31.7648 24.7648C32.1555 24.3741 32.375 23.8442 32.375 23.2917V10.7917C32.375 10.2391 32.1555 9.70923 31.7648 9.31853C31.3741 8.92783 30.8442 8.70833 30.2917 8.70833H15.7083C15.1558 8.70833 14.6259 8.92783 14.2352 9.31853C13.8445 9.70923 13.625 10.2391 13.625 10.7917V23.2917C13.625 23.8442 13.8445 24.3741 14.2352 24.7648C14.6259 25.1555 15.1558 25.375 15.7083 25.375Z" stroke="#C3BFBF" stroke-width="2" stroke-linecap="round" stroke-linejoin="round"/>
</svg>
