<svg width="46" height="46" viewBox="0 0 46 46" fill="none" xmlns="http://www.w3.org/2000/svg">
<path d="M11.65 40.98C11.2967 40.84 11.01 40.74 10.79 40.68C10.5767 40.62 10.3867 40.59 10.22 40.59C10.06 40.59 9.80333 40.63 9.45 40.71C9.10333 40.7967 8.91333 40.84 8.88 40.84C8.73333 40.72 8.65333 40.5667 8.64 40.38C9.36667 40.02 9.92333 39.84 10.31 39.84C10.6767 39.84 11.2 39.9733 11.88 40.24C12.1533 40.3533 12.4067 40.4367 12.64 40.49C12.88 40.55 13.2933 40.5867 13.88 40.6C13.88 40.8867 13.7567 41.19 13.51 41.51C13.1567 41.49 12.77 41.4033 12.35 41.25C12.2367 41.21 12.0033 41.12 11.65 40.98ZM10.77 38.85C12.1167 38.85 12.79 37.9033 12.79 36.01C12.79 34.11 12.1167 33.16 10.77 33.16C10.1367 33.16 9.62 33.2533 9.22 33.44C8.86 34.1533 8.68 34.9767 8.68 35.91C8.68 36.8367 8.83333 37.56 9.14 38.08C9.45333 38.5933 9.99667 38.85 10.77 38.85ZM7.7 36.04C7.7 34.8667 7.94 33.9633 8.42 33.33C8.90667 32.69 9.69333 32.37 10.78 32.37C11.8733 32.37 12.6433 32.6633 13.09 33.25C13.5433 33.83 13.77 34.71 13.77 35.89C13.77 37.07 13.5267 37.99 13.04 38.65C12.56 39.3033 11.79 39.63 10.73 39.63C9.67667 39.63 8.90667 39.3267 8.42 38.72C7.94 38.1067 7.7 37.2133 7.7 36.04ZM16.8267 38.84C17.0201 38.84 17.2367 38.8 17.4767 38.72C17.7167 38.6333 17.9134 38.53 18.0667 38.41C18.0401 36.99 18.0167 35.9133 17.9967 35.18C17.5834 35.18 17.2767 35.14 17.0767 35.06L17.1167 34.54C17.6834 34.44 18.1267 34.39 18.4467 34.39C18.7734 34.39 18.9801 34.3967 19.0667 34.41C19.0667 34.53 19.0467 34.69 19.0067 34.89C18.9734 35.09 18.9501 35.2 18.9367 35.22L18.8167 38.79C19.1701 38.81 19.4567 38.85 19.6767 38.91L19.6567 39.42C19.3634 39.5133 19.0801 39.56 18.8067 39.56C18.5334 39.56 18.3667 39.5567 18.3067 39.55C18.1801 39.2967 18.1067 39.0633 18.0867 38.85C17.7601 39.0967 17.4567 39.2867 17.1767 39.42C16.9034 39.5533 16.7234 39.62 16.6367 39.62C16.0501 39.62 15.6234 39.4633 15.3567 39.15C15.0967 38.83 14.9667 38.3633 14.9667 37.75C14.9667 37.7433 14.9967 36.89 15.0567 35.19C14.6701 35.19 14.3134 35.1467 13.9867 35.06L14.0267 34.54C14.5934 34.44 15.0334 34.39 15.3467 34.39C15.6601 34.39 15.8601 34.3967 15.9467 34.41C15.9467 34.57 15.9267 34.7467 15.8867 34.94C15.8467 35.1333 15.8234 35.2267 15.8167 35.22L15.8267 37.38C15.8267 37.8867 15.8901 38.2567 16.0167 38.49C16.1434 38.7233 16.4134 38.84 16.8267 38.84ZM22.504 39.02C23.064 39.02 23.4407 38.8467 23.634 38.5C23.834 38.1467 23.934 37.6467 23.934 37C23.934 35.9733 23.7073 35.33 23.254 35.07C23.0673 34.9633 22.804 34.91 22.464 34.91C22.1307 34.91 21.814 34.98 21.514 35.12C21.2473 35.6333 21.114 36.23 21.114 36.91C21.114 37.5633 21.2007 38.0667 21.374 38.42C21.574 38.82 21.9507 39.02 22.504 39.02ZM20.194 37C20.194 36.1533 20.3873 35.4933 20.774 35.02C21.1607 34.54 21.7573 34.3 22.564 34.3C23.3707 34.3 23.954 34.52 24.314 34.96C24.674 35.3933 24.854 36.0367 24.854 36.89C24.854 37.7433 24.6607 38.4133 24.274 38.9C23.894 39.3867 23.314 39.63 22.534 39.63C21.754 39.63 21.1673 39.4033 20.774 38.95C20.3873 38.4967 20.194 37.8467 20.194 37ZM26.3148 38.88L26.2348 35.11H25.4648L25.4348 34.76C25.5015 34.7133 25.6948 34.6267 26.0148 34.5L26.8348 33.22C26.9682 33.2333 27.0715 33.2667 27.1448 33.32L27.1348 34.42C27.6348 34.42 28.0448 34.4533 28.3648 34.52C28.3648 34.7 28.3082 34.8967 28.1948 35.11H27.1148C27.1015 35.91 27.0882 37.1233 27.0748 38.75C27.4482 38.77 27.8215 38.8367 28.1948 38.95L28.1848 39.3C28.0915 39.36 27.8515 39.43 27.4648 39.51C27.0848 39.59 26.7715 39.63 26.5248 39.63C26.4915 39.5767 26.4482 39.4633 26.3948 39.29C26.3415 39.11 26.3148 38.9733 26.3148 38.88ZM31.5914 38.94C31.8847 38.94 32.3447 38.8 32.9714 38.52C33.0981 38.6933 33.1647 38.8467 33.1714 38.98C32.8314 39.18 32.4981 39.3367 32.1714 39.45C31.8447 39.5633 31.6114 39.62 31.4714 39.62C30.6981 39.62 30.1081 39.39 29.7014 38.93C29.2947 38.4633 29.0914 37.8133 29.0914 36.98C29.0914 36.1467 29.2881 35.4933 29.6814 35.02C30.0814 34.54 30.6781 34.3 31.4714 34.3C32.0847 34.3 32.5514 34.52 32.8714 34.96C33.1981 35.4 33.3614 35.99 33.3614 36.73C33.3081 36.8233 33.2647 36.8867 33.2314 36.92L30.0114 36.87C30.0181 37.5433 30.1347 38.0567 30.3614 38.41C30.5947 38.7633 31.0047 38.94 31.5914 38.94ZM32.4514 36.3C32.4514 35.86 32.3714 35.52 32.2114 35.28C32.0514 35.0333 31.7847 34.91 31.4114 34.91C31.0381 34.91 30.7047 34.98 30.4114 35.12C30.2114 35.52 30.0847 35.93 30.0314 36.35C30.5581 36.3433 31.3647 36.3267 32.4514 36.3ZM34.9986 38.86C35.2319 38.96 35.5153 39.01 35.8486 39.01C36.1886 39.01 36.4553 38.9467 36.6486 38.82C36.8419 38.6933 36.9386 38.52 36.9386 38.3C36.9386 38.08 36.8486 37.8967 36.6686 37.75C36.4886 37.6033 36.2686 37.4733 36.0086 37.36C35.7486 37.2467 35.4886 37.1267 35.2286 37C34.9686 36.8733 34.7486 36.7067 34.5686 36.5C34.3886 36.2933 34.2986 36.0533 34.2986 35.78C34.2986 35.32 34.4519 34.96 34.7586 34.7C35.0653 34.4333 35.4886 34.3 36.0286 34.3C36.5753 34.3 37.0886 34.4233 37.5686 34.67C37.5753 34.7367 37.5786 34.9167 37.5786 35.21C37.5786 35.4967 37.5486 35.7433 37.4886 35.95C37.3286 36.0033 37.1386 36.03 36.9186 36.03L36.5886 35.01C36.4419 34.9367 36.2419 34.9 35.9886 34.9C35.7419 34.9 35.5453 34.9667 35.3986 35.1C35.2519 35.2267 35.1786 35.39 35.1786 35.59C35.1786 35.7833 35.2686 35.9533 35.4486 36.1C35.6353 36.2467 35.8586 36.38 36.1186 36.5C36.3786 36.6133 36.6386 36.7367 36.8986 36.87C37.1586 36.9967 37.3786 37.1667 37.5586 37.38C37.7453 37.5867 37.8386 37.8267 37.8386 38.1C37.8386 38.58 37.6519 38.9567 37.2786 39.23C36.9119 39.4967 36.4586 39.63 35.9186 39.63C35.6253 39.63 35.3119 39.5833 34.9786 39.49C34.6453 39.39 34.3653 39.2633 34.1386 39.11C34.1386 38.6633 34.1786 38.2667 34.2586 37.92C34.4119 37.8933 34.6186 37.88 34.8786 37.88L34.9986 38.86Z" fill="#C3BFBF"/>
<path d="M23 11.0136V24.5552M23 11.0136C21.7833 10.2052 20.1312 9.70834 18.3125 9.70834C16.4937 9.70834 14.8417 10.2052 13.625 11.0136V24.5552C14.8417 23.7469 16.4937 23.25 18.3125 23.25C20.1312 23.25 21.7833 23.7469 23 24.5552M23 11.0136C24.2167 10.2052 25.8687 9.70834 27.6875 9.70834C29.5073 9.70834 31.1583 10.2052 32.375 11.0136V24.5552C31.1583 23.7469 29.5073 23.25 27.6875 23.25C25.8687 23.25 24.2167 23.7469 23 24.5552" stroke="#C3BFBF" stroke-width="2" stroke-linecap="round" stroke-linejoin="round"/>
</svg>
