<svg width="46" height="46" viewBox="0 0 46 46" fill="none" xmlns="http://www.w3.org/2000/svg">
<path d="M17.61 33.19L18.66 38.82L19.57 38.91C19.57 39.09 19.5133 39.2867 19.4 39.5H17.1L17.07 39.15C17.27 39.0633 17.5167 38.9933 17.81 38.94L16.74 33.33L15.42 39.02H14.43L12.61 33.31L11.8 38.82L12.65 38.9C12.65 39.0867 12.5933 39.2867 12.48 39.5H10.18L10.15 39.15C10.4433 39.0433 10.7367 38.9633 11.03 38.91L11.91 33.11C11.5033 33.05 11.18 32.98 10.94 32.9L10.98 32.5H13.31L14.9 37.98H14.94L16.18 32.5H18.41C18.5233 32.7133 18.58 32.92 18.58 33.12C18.1467 33.1667 17.8233 33.19 17.61 33.19ZM24.0968 36.23L24.0468 38.81C24.3335 38.83 24.6201 38.8767 24.9068 38.95L24.8868 39.3C24.7801 39.3533 24.5868 39.4133 24.3068 39.48C24.0335 39.54 23.7635 39.57 23.4968 39.57C23.3768 39.33 23.3101 39.1 23.2968 38.88C22.5368 39.38 22.0035 39.63 21.6968 39.63C21.2235 39.63 20.8435 39.5033 20.5568 39.25C20.2701 38.9967 20.1268 38.6433 20.1268 38.19C20.1268 37.1433 20.7668 36.6033 22.0468 36.57C22.7935 36.55 23.1701 36.54 23.1768 36.54L23.1668 36.2C23.1535 35.74 23.0668 35.41 22.9068 35.21C22.7468 35.0033 22.4601 34.9 22.0468 34.9C21.8735 34.9 21.6868 34.94 21.4868 35.02L21.2468 36.02C21.2135 36.0267 21.1568 36.03 21.0768 36.03L20.6668 36C20.5601 35.7133 20.5035 35.3167 20.4968 34.81C20.6235 34.7433 20.9135 34.6433 21.3668 34.51C21.8201 34.37 22.1101 34.3 22.2368 34.3C22.9168 34.3 23.3968 34.45 23.6768 34.75C23.9568 35.05 24.0968 35.5433 24.0968 36.23ZM21.9168 38.95C22.1101 38.95 22.5568 38.7333 23.2568 38.3L23.2068 37.05C22.7535 37.09 22.3735 37.1267 22.0668 37.16C21.7601 37.1933 21.5135 37.2833 21.3268 37.43C21.1401 37.57 21.0468 37.7933 21.0468 38.1C21.0468 38.6667 21.3368 38.95 21.9168 38.95ZM27.0374 38.99L26.9874 41.13L27.8574 41.2C27.8574 41.3867 27.8008 41.5867 27.6874 41.8H25.3674L25.3374 41.45C25.6441 41.35 25.9441 41.2733 26.2374 41.22C26.1974 38.5 26.1641 36.4767 26.1374 35.15C25.8374 35.1433 25.5441 35.1033 25.2574 35.03L25.2974 34.51C25.6841 34.41 26.2241 34.36 26.9174 34.36C26.9774 34.4667 27.0341 34.6633 27.0874 34.95C27.9408 34.5167 28.4808 34.3 28.7074 34.3C29.3274 34.3 29.7874 34.5433 30.0874 35.03C30.3874 35.51 30.5374 36.1367 30.5374 36.91C30.5374 37.6767 30.3674 38.32 30.0274 38.84C29.6941 39.36 29.2074 39.62 28.5674 39.62C28.3274 39.62 28.0641 39.56 27.7774 39.44C27.4974 39.32 27.2508 39.17 27.0374 38.99ZM28.5274 35.05C28.1141 35.05 27.6341 35.1967 27.0874 35.49C27.0741 36.73 27.0608 37.66 27.0474 38.28C27.2141 38.4467 27.4341 38.6 27.7074 38.74C27.9874 38.8733 28.2308 38.94 28.4374 38.94C29.2241 38.94 29.6174 38.2933 29.6174 37C29.6174 36.5067 29.5608 36.12 29.4474 35.84C29.3341 35.5533 29.2041 35.35 29.0574 35.23C28.9108 35.11 28.7341 35.05 28.5274 35.05ZM32.0884 38.86C32.3218 38.96 32.6051 39.01 32.9384 39.01C33.2784 39.01 33.5451 38.9467 33.7384 38.82C33.9318 38.6933 34.0284 38.52 34.0284 38.3C34.0284 38.08 33.9384 37.8967 33.7584 37.75C33.5784 37.6033 33.3584 37.4733 33.0984 37.36C32.8384 37.2467 32.5784 37.1267 32.3184 37C32.0584 36.8733 31.8384 36.7067 31.6584 36.5C31.4784 36.2933 31.3884 36.0533 31.3884 35.78C31.3884 35.32 31.5418 34.96 31.8484 34.7C32.1551 34.4333 32.5784 34.3 33.1184 34.3C33.6651 34.3 34.1784 34.4233 34.6584 34.67C34.6651 34.7367 34.6684 34.9167 34.6684 35.21C34.6684 35.4967 34.6384 35.7433 34.5784 35.95C34.4184 36.0033 34.2284 36.03 34.0084 36.03L33.6784 35.01C33.5318 34.9367 33.3318 34.9 33.0784 34.9C32.8318 34.9 32.6351 34.9667 32.4884 35.1C32.3418 35.2267 32.2684 35.39 32.2684 35.59C32.2684 35.7833 32.3584 35.9533 32.5384 36.1C32.7251 36.2467 32.9484 36.38 33.2084 36.5C33.4684 36.6133 33.7284 36.7367 33.9884 36.87C34.2484 36.9967 34.4684 37.1667 34.6484 37.38C34.8351 37.5867 34.9284 37.8267 34.9284 38.1C34.9284 38.58 34.7418 38.9567 34.3684 39.23C34.0018 39.4967 33.5484 39.63 33.0084 39.63C32.7151 39.63 32.4018 39.5833 32.0684 39.49C31.7351 39.39 31.4551 39.2633 31.2284 39.11C31.2284 38.6633 31.2684 38.2667 31.3484 37.92C31.5018 37.8933 31.7084 37.88 31.9684 37.88L32.0884 38.86Z" fill="black"/>
<path d="M28.8927 20.851L24.4729 25.2708C24.2796 25.4643 24.0501 25.6178 23.7974 25.7225C23.5448 25.8272 23.274 25.8811 23.0005 25.8811C22.727 25.8811 22.4562 25.8272 22.2035 25.7225C21.9509 25.6178 21.7214 25.4643 21.5281 25.2708L17.1073 20.851C15.9419 19.6856 15.1482 18.2007 14.8267 16.5842C14.5052 14.9677 14.6703 13.2922 15.301 11.7695C15.9318 10.2468 16.9999 8.94535 18.3703 8.0297C19.7407 7.11404 21.3518 6.62531 23 6.62531C24.6481 6.62531 26.2593 7.11404 27.6297 8.0297C29.0001 8.94535 30.0682 10.2468 30.6989 11.7695C31.3297 13.2922 31.4947 14.9677 31.1732 16.5842C30.8517 18.2007 30.0581 19.6856 28.8927 20.851Z" stroke="black" stroke-width="2" stroke-linecap="round" stroke-linejoin="round"/>
<path d="M26.125 14.9583C26.125 15.7871 25.7958 16.582 25.2097 17.168C24.6237 17.7541 23.8288 18.0833 23 18.0833C22.1712 18.0833 21.3763 17.7541 20.7903 17.168C20.2042 16.582 19.875 15.7871 19.875 14.9583C19.875 14.1295 20.2042 13.3347 20.7903 12.7486C21.3763 12.1626 22.1712 11.8333 23 11.8333C23.8288 11.8333 24.6237 12.1626 25.2097 12.7486C25.7958 13.3347 26.125 14.1295 26.125 14.9583Z" stroke="black" stroke-width="2" stroke-linecap="round" stroke-linejoin="round"/>
</svg>
