<svg width="46" height="46" viewBox="0 0 46 46" fill="none" xmlns="http://www.w3.org/2000/svg">
<path d="M13.84 33.3C13.6267 33.2333 13.3433 33.2 12.99 33.2H12.16L12.13 35.72L12.89 35.71C13.3833 35.7033 13.7767 35.6033 14.07 35.41C14.3633 35.2167 14.51 34.85 14.51 34.31C14.51 33.7633 14.2867 33.4267 13.84 33.3ZM12.12 36.36L12.09 38.83L12.92 38.9C12.92 39.0867 12.8633 39.2867 12.75 39.5H10.45L10.42 39.15C10.7 39.05 10.9867 38.9733 11.28 38.92C11.24 36.3867 11.2067 34.4533 11.18 33.12C10.9933 33.0933 10.7 33.0133 10.3 32.88C10.3 32.7933 10.3167 32.6667 10.35 32.5H12.6C13.82 32.5 14.6133 32.65 14.98 32.95C15.34 33.2367 15.52 33.6867 15.52 34.3C15.52 35.3333 14.9533 36.0033 13.82 36.31L15.53 38.84L16.36 38.91C16.36 39.09 16.3033 39.2867 16.19 39.5H14.96L12.86 36.36H12.12ZM19.4225 38.83C20.4158 38.83 20.9125 38.4267 20.9125 37.62C20.9125 37.2267 20.6692 36.8933 20.1825 36.62C19.9625 36.4933 19.7192 36.3733 19.4525 36.26C19.1925 36.1467 18.9292 36.0233 18.6625 35.89C18.3958 35.7567 18.1525 35.6133 17.9325 35.46C17.7192 35.3067 17.5425 35.1133 17.4025 34.88C17.2692 34.6467 17.2025 34.3833 17.2025 34.09C17.2025 33.61 17.3958 33.2033 17.7825 32.87C18.1758 32.53 18.7125 32.36 19.3925 32.36C20.0725 32.36 20.7892 32.5667 21.5425 32.98C21.5425 33.36 21.4958 33.8367 21.4025 34.41C21.2558 34.43 21.0625 34.44 20.8225 34.44L20.5225 33.28C20.4425 33.24 20.2825 33.2 20.0425 33.16C19.8092 33.12 19.6025 33.1 19.4225 33.1C19.0358 33.1 18.7358 33.1833 18.5225 33.35C18.3092 33.51 18.2025 33.7367 18.2025 34.03C18.2025 34.3167 18.3258 34.5767 18.5725 34.81C18.8258 35.0367 19.1292 35.2333 19.4825 35.4C19.8425 35.56 20.1992 35.7267 20.5525 35.9C20.9125 36.0733 21.2158 36.3 21.4625 36.58C21.7158 36.8533 21.8425 37.1733 21.8425 37.54C21.8425 38.2067 21.6192 38.7233 21.1725 39.09C20.7258 39.45 20.1425 39.63 19.4225 39.63C19.0292 39.63 18.6025 39.57 18.1425 39.45C17.6892 39.3233 17.3125 39.1633 17.0125 38.97C17.0258 38.5233 17.0758 38.0067 17.1625 37.42C17.3092 37.4 17.5025 37.39 17.7425 37.39L17.9525 38.59C18.0992 38.65 18.3192 38.7067 18.6125 38.76C18.9125 38.8067 19.1825 38.83 19.4225 38.83ZM28.6349 33.16L26.5749 39.5H25.5349L23.2449 33.09C22.9783 33.0367 22.6783 32.9567 22.3449 32.85L22.3749 32.5H24.9749C25.0883 32.7133 25.1449 32.9133 25.1449 33.1C24.8183 33.12 24.5183 33.14 24.2449 33.16L26.0149 38.45H26.0649C26.2116 37.95 26.7683 36.1633 27.7349 33.09C27.4683 33.05 27.1549 32.97 26.7949 32.85L26.8249 32.5H29.3349C29.4483 32.7133 29.5049 32.9133 29.5049 33.1C29.1983 33.12 28.9083 33.14 28.6349 33.16ZM32.6496 32.5C33.4963 32.5 34.1229 32.64 34.5296 32.92C34.9429 33.1933 35.1496 33.68 35.1496 34.38C35.1496 35.08 34.9463 35.6367 34.5396 36.05C34.1329 36.4567 33.4763 36.66 32.5696 36.66H31.7296L31.6996 38.83L32.4796 38.9C32.4796 39.0867 32.4229 39.2867 32.3096 39.5H30.0596L30.0296 39.16C30.3096 39.0533 30.5963 38.9733 30.8896 38.92C30.8496 36.32 30.8163 34.3867 30.7896 33.12C30.6096 33.0867 30.3163 33.0067 29.9096 32.88L29.9596 32.5H32.6496ZM32.4696 36.01C33.0429 36.0033 33.4796 35.86 33.7796 35.58C34.0796 35.2933 34.2296 34.9167 34.2296 34.45C34.2296 33.9833 34.0829 33.66 33.7896 33.48C33.4963 33.2933 33.0263 33.2 32.3796 33.2C32.2596 33.2 32.0563 33.2033 31.7696 33.21C31.7696 33.2167 31.7596 34.1533 31.7396 36.02L32.4696 36.01Z" fill="#C3BFBF"/>
<path d="M18.5416 20.6417L20.376 20.1125L31.4208 8.93542C31.5079 8.84614 31.5564 8.72618 31.5559 8.60145C31.5553 8.47671 31.5056 8.35721 31.4177 8.26875L30.7562 7.6C30.7135 7.55608 30.6624 7.52112 30.606 7.49715C30.5496 7.47317 30.489 7.46068 30.4277 7.46039C30.3664 7.4601 30.3057 7.47202 30.2491 7.49545C30.1924 7.51889 30.1411 7.55337 30.0979 7.59688L19.0823 18.7448L18.5416 20.6417ZM32.0656 6.275L32.7271 6.94479C33.6396 7.86875 33.6479 9.35938 32.7437 10.274L21.3625 21.7927L17.4416 22.9219C17.3231 22.9552 17.1992 22.9648 17.0769 22.9503C16.9547 22.9357 16.8365 22.8972 16.7291 22.8369C16.6217 22.7766 16.5273 22.6958 16.4512 22.599C16.375 22.5023 16.3187 22.3915 16.2854 22.2729C16.2343 22.101 16.2336 21.9181 16.2833 21.7458L17.4239 17.7458L28.775 6.25729C28.9908 6.03996 29.2478 5.86778 29.5309 5.75079C29.8139 5.6338 30.1175 5.57434 30.4238 5.5759C30.7301 5.57745 31.033 5.63997 31.3149 5.75982C31.5968 5.87967 31.852 6.05549 32.0656 6.275ZM20.0666 7.47604C20.5833 7.47604 21.0021 7.9 21.0021 8.42292C21.0029 8.54653 20.9793 8.66909 20.9328 8.7836C20.8862 8.8981 20.8175 9.00231 20.7306 9.09024C20.6437 9.17818 20.5404 9.24814 20.4265 9.29611C20.3125 9.34407 20.1903 9.36911 20.0666 9.36979H16.325C15.2916 9.36979 14.4541 10.2177 14.4541 11.2625V22.6229C14.4541 23.6688 15.2916 24.5167 16.325 24.5167H27.55C28.5833 24.5167 29.4219 23.6688 29.4219 22.6229V18.8365C29.4219 18.3135 29.8406 17.8896 30.3573 17.8896C30.8739 17.8896 31.2927 18.3135 31.2927 18.8375V22.6229C31.2927 24.7146 29.6166 26.4104 27.55 26.4104H16.325C14.2583 26.4104 12.5833 24.7146 12.5833 22.6229V11.2625C12.5833 9.17188 14.2583 7.47604 16.325 7.47604H20.0666Z" fill="#C3BFBF"/>
</svg>
