<svg width="46" height="46" viewBox="0 0 46 46" fill="none" xmlns="http://www.w3.org/2000/svg">
<path d="M20.6563 27.1562V21.6797C20.6563 21.2969 21.0469 20.9062 21.4375 20.9062H24.5625C24.9531 20.9062 25.3438 21.2969 25.3438 21.6875V27.1562C25.3438 27.3634 25.4261 27.5622 25.5726 27.7087C25.7191 27.8552 25.9178 27.9375 26.125 27.9375H32.375C32.5822 27.9375 32.7809 27.8552 32.9274 27.7087C33.0739 27.5622 33.1563 27.3634 33.1563 27.1562V16.2187C33.1564 16.1161 33.1364 16.0144 33.0972 15.9195C33.0581 15.8246 33.0006 15.7383 32.9281 15.6656L30.8125 13.5516V8.40624C30.8125 8.19904 30.7302 8.00033 30.5837 7.85382C30.4372 7.7073 30.2385 7.62499 30.0313 7.62499H28.4688C28.2616 7.62499 28.0628 7.7073 27.9163 7.85382C27.7698 8.00033 27.6875 8.19904 27.6875 8.40624V10.4266L23.5531 6.29062C23.4806 6.21786 23.3943 6.16014 23.2994 6.12075C23.2045 6.08137 23.1028 6.0611 23 6.0611C22.8972 6.0611 22.7955 6.08137 22.7006 6.12075C22.6057 6.16014 22.5194 6.21786 22.4469 6.29062L13.0719 15.6656C12.9994 15.7383 12.9419 15.8246 12.9028 15.9195C12.8636 16.0144 12.8436 16.1161 12.8438 16.2187V27.1562C12.8438 27.3634 12.9261 27.5622 13.0726 27.7087C13.2191 27.8552 13.4178 27.9375 13.625 27.9375H19.875C20.0822 27.9375 20.2809 27.8552 20.4274 27.7087C20.5739 27.5622 20.6563 27.3634 20.6563 27.1562Z" fill="black"/>
<path d="M6.77 38.85C8.11667 38.85 8.79 37.9033 8.79 36.01C8.79 34.11 8.11667 33.16 6.77 33.16C6.13667 33.16 5.62 33.2533 5.22 33.44C4.86 34.1533 4.68 34.9767 4.68 35.91C4.68 36.8367 4.83333 37.56 5.14 38.08C5.45333 38.5933 5.99667 38.85 6.77 38.85ZM3.7 36.04C3.7 34.8667 3.94 33.9633 4.42 33.33C4.90667 32.69 5.69333 32.37 6.78 32.37C7.87333 32.37 8.64333 32.6633 9.09 33.25C9.54333 33.83 9.77 34.71 9.77 35.89C9.77 37.07 9.52667 37.9867 9.04 38.64C8.56 39.2933 7.79 39.62 6.73 39.62C5.67667 39.62 4.90667 39.3167 4.42 38.71C3.94 38.1033 3.7 37.2133 3.7 36.04ZM11.9046 38.99L11.8546 41.13L12.7246 41.2C12.7246 41.3867 12.6679 41.5867 12.5546 41.8H10.2346L10.2046 41.45C10.5113 41.35 10.8113 41.2733 11.1046 41.22C11.0646 38.5 11.0313 36.4767 11.0046 35.15C10.7046 35.1433 10.4113 35.1033 10.1246 35.03L10.1646 34.51C10.5513 34.41 11.0913 34.36 11.7846 34.36C11.8446 34.4667 11.9013 34.6633 11.9546 34.95C12.8079 34.5167 13.3479 34.3 13.5746 34.3C14.1946 34.3 14.6546 34.5433 14.9546 35.03C15.2546 35.51 15.4046 36.1367 15.4046 36.91C15.4046 37.6767 15.2346 38.32 14.8946 38.84C14.5613 39.36 14.0746 39.62 13.4346 39.62C13.1946 39.62 12.9313 39.56 12.6446 39.44C12.3646 39.32 12.1179 39.17 11.9046 38.99ZM13.3946 35.05C12.9813 35.05 12.5013 35.1967 11.9546 35.49C11.9413 36.73 11.9279 37.66 11.9146 38.28C12.0813 38.4467 12.3013 38.6 12.5746 38.74C12.8546 38.8733 13.0979 38.94 13.3046 38.94C14.0913 38.94 14.4846 38.2933 14.4846 37C14.4846 36.5067 14.4279 36.12 14.3146 35.84C14.2013 35.5533 14.0713 35.35 13.9246 35.23C13.7779 35.11 13.6013 35.05 13.3946 35.05ZM18.6656 38.94C18.959 38.94 19.419 38.8 20.0456 38.52C20.1723 38.6933 20.239 38.8467 20.2456 38.98C19.9056 39.18 19.5723 39.3367 19.2456 39.45C18.919 39.5633 18.6856 39.62 18.5456 39.62C17.7723 39.62 17.1823 39.39 16.7756 38.93C16.369 38.4633 16.1656 37.8133 16.1656 36.98C16.1656 36.1467 16.3623 35.4933 16.7556 35.02C17.1556 34.54 17.7523 34.3 18.5456 34.3C19.159 34.3 19.6256 34.52 19.9456 34.96C20.2723 35.4 20.4356 35.99 20.4356 36.73C20.3823 36.8233 20.339 36.8867 20.3056 36.92L17.0856 36.87C17.0923 37.5433 17.209 38.0567 17.4356 38.41C17.669 38.7633 18.079 38.94 18.6656 38.94ZM19.5256 36.3C19.5256 35.86 19.4456 35.52 19.2856 35.28C19.1256 35.0333 18.859 34.91 18.4856 34.91C18.1123 34.91 17.779 34.98 17.4856 35.12C17.2856 35.52 17.159 35.93 17.1056 36.35C17.6323 36.3433 18.439 36.3267 19.5256 36.3ZM24.3628 34.3C25.0028 34.3 25.4661 34.46 25.7528 34.78C26.0395 35.0933 26.1828 35.5733 26.1828 36.22C26.1828 36.4067 26.1561 37.2733 26.1028 38.82L26.9428 38.9C26.9428 39.0867 26.8861 39.2867 26.7728 39.5H24.4728L24.4428 39.15C24.7495 39.0433 25.0495 38.9633 25.3428 38.91C25.3028 37.1633 25.2661 36.1933 25.2328 36C25.2061 35.8 25.1595 35.6267 25.0928 35.48C25.0261 35.3333 24.9261 35.23 24.7928 35.17C24.6595 35.11 24.4828 35.08 24.2628 35.08C23.8228 35.08 23.3961 35.1867 22.9828 35.4C22.9428 36.92 22.9161 38.06 22.9028 38.82L23.7428 38.9C23.7428 39.0867 23.6861 39.2867 23.5728 39.5H21.2728L21.2428 39.15C21.5495 39.0433 21.8495 38.9633 22.1428 38.91C22.1028 37.2167 22.0695 35.9633 22.0428 35.15C21.6761 35.13 21.3828 35.09 21.1628 35.03L21.2028 34.51C21.5628 34.41 22.0861 34.36 22.7728 34.36C22.8528 34.48 22.9128 34.6533 22.9528 34.88C23.2395 34.7267 23.5261 34.5933 23.8128 34.48C24.1061 34.36 24.2895 34.3 24.3628 34.3ZM29.2049 33.47C29.0316 33.51 28.8616 33.53 28.6949 33.53C28.5349 33.53 28.3749 33.52 28.2149 33.5C28.1749 33.3133 28.1549 33.1267 28.1549 32.94C28.1549 32.7467 28.1616 32.6033 28.1749 32.51C28.3216 32.4767 28.4749 32.46 28.6349 32.46C28.8016 32.46 28.9783 32.4667 29.1649 32.48C29.2049 32.6533 29.2249 32.8233 29.2249 32.99C29.2249 33.15 29.2183 33.31 29.2049 33.47ZM27.3849 34.52C27.9516 34.42 28.3916 34.37 28.7049 34.37C29.0183 34.37 29.2183 34.3767 29.3049 34.39C29.3049 34.55 29.2849 34.7267 29.2449 34.92C29.2049 35.1133 29.1816 35.2067 29.1749 35.2L29.0849 38.82L29.9249 38.9C29.9249 39.0867 29.8683 39.2867 29.7549 39.5H27.4549L27.4249 39.15C27.7316 39.0433 28.0316 38.9633 28.3249 38.91C28.2849 37.2433 28.2516 35.9933 28.2249 35.16C27.8383 35.16 27.5449 35.12 27.3449 35.04L27.3849 34.52ZM33.6011 34.3C34.2411 34.3 34.7044 34.46 34.9911 34.78C35.2778 35.0933 35.4211 35.5733 35.4211 36.22C35.4211 36.4067 35.3944 37.2733 35.3411 38.82L36.1811 38.9C36.1811 39.0867 36.1244 39.2867 36.0111 39.5H33.7111L33.6811 39.15C33.9878 39.0433 34.2878 38.9633 34.5811 38.91C34.5411 37.1633 34.5044 36.1933 34.4711 36C34.4444 35.8 34.3978 35.6267 34.3311 35.48C34.2644 35.3333 34.1644 35.23 34.0311 35.17C33.8978 35.11 33.7211 35.08 33.5011 35.08C33.0611 35.08 32.6344 35.1867 32.2211 35.4C32.1811 36.92 32.1544 38.06 32.1411 38.82L32.9811 38.9C32.9811 39.0867 32.9244 39.2867 32.8111 39.5H30.5111L30.4811 39.15C30.7878 39.0433 31.0878 38.9633 31.3811 38.91C31.3411 37.2167 31.3078 35.9633 31.2811 35.15C30.9144 35.13 30.6211 35.09 30.4011 35.03L30.4411 34.51C30.8011 34.41 31.3244 34.36 32.0111 34.36C32.0911 34.48 32.1511 34.6533 32.1911 34.88C32.4778 34.7267 32.7644 34.5933 33.0511 34.48C33.3444 34.36 33.5278 34.3 33.6011 34.3ZM39.2832 38.89L40.1732 38.87C41.0932 38.87 41.5532 39.25 41.5532 40.01C41.5532 40.3633 41.3999 40.69 41.0932 40.99C40.7932 41.2967 40.4332 41.5267 40.0132 41.68C39.5932 41.8333 39.1999 41.91 38.8332 41.91C38.4732 41.91 38.1365 41.8567 37.8232 41.75C37.5099 41.65 37.2432 41.4833 37.0232 41.25C36.8032 41.0167 36.6932 40.7467 36.6932 40.44C36.6932 40.3667 36.8099 40.1733 37.0432 39.86C37.2832 39.5533 37.4399 39.3733 37.5132 39.32C37.4532 39.28 37.3365 39.1667 37.1632 38.98C36.9899 38.7867 36.8932 38.6533 36.8732 38.58C37.0399 38.2733 37.3032 37.9733 37.6632 37.68C37.1299 37.36 36.8632 36.8333 36.8632 36.1C36.8632 35.5133 37.0499 35.0667 37.4232 34.76C37.7965 34.4533 38.2632 34.3 38.8232 34.3C39.3832 34.3 39.8165 34.39 40.1232 34.57C40.6565 34.4633 41.1799 34.41 41.6932 34.41C41.8199 34.41 41.8832 34.4867 41.8832 34.64C41.8832 34.9067 41.8332 35.09 41.7332 35.19L40.5832 35C40.8232 35.3067 40.9432 35.6733 40.9432 36.1C40.9432 36.7667 40.7465 37.2467 40.3532 37.54C39.9599 37.8267 39.4765 37.97 38.9032 37.97C38.7232 37.97 38.5099 37.9467 38.2632 37.9C38.1632 38.1067 38.0365 38.33 37.8832 38.57C38.0032 38.7833 38.4699 38.89 39.2832 38.89ZM40.5532 40.73C40.6199 40.5433 40.6532 40.35 40.6532 40.15C40.6532 39.9567 40.5765 39.8 40.4232 39.68C40.2699 39.56 40.0732 39.5 39.8332 39.5C38.8799 39.5 38.2965 39.49 38.0832 39.47C37.9032 39.7567 37.7765 39.9967 37.7032 40.19C37.6365 40.39 37.6032 40.5033 37.6032 40.53C37.6032 40.79 37.7265 40.9833 37.9732 41.11C38.2199 41.2367 38.5032 41.3 38.8232 41.3C39.1499 41.3 39.4765 41.2467 39.8032 41.14C40.1365 41.0333 40.3865 40.8967 40.5532 40.73ZM40.0432 36.14C40.0432 35.3133 39.6632 34.9 38.9032 34.9C38.1432 34.9 37.7632 35.3 37.7632 36.1C37.7632 36.5067 37.8632 36.82 38.0632 37.04C38.2632 37.26 38.5532 37.37 38.9332 37.37C39.6732 37.37 40.0432 36.96 40.0432 36.14Z" fill="black"/>
</svg>
