<svg width="46" height="46" viewBox="0 0 46 46" fill="none" xmlns="http://www.w3.org/2000/svg">
<path d="M6.55 32.5C7.39667 32.5 8.02333 32.64 8.43 32.92C8.84333 33.1933 9.05 33.68 9.05 34.38C9.05 35.08 8.84667 35.6367 8.44 36.05C8.03333 36.4567 7.37667 36.66 6.47 36.66H5.63L5.6 38.83L6.38 38.9C6.38 39.0867 6.32333 39.2867 6.21 39.5H3.96L3.93 39.16C4.21 39.0533 4.49667 38.9733 4.79 38.92C4.75 36.32 4.71667 34.3867 4.69 33.12C4.51 33.0867 4.21667 33.0067 3.81 32.88L3.86 32.5H6.55ZM6.37 36.01C6.94333 36.0033 7.38 35.86 7.68 35.58C7.98 35.2933 8.13 34.9167 8.13 34.45C8.13 33.9833 7.98333 33.66 7.69 33.48C7.39667 33.2933 6.92667 33.2 6.28 33.2C6.16 33.2 5.95667 33.2033 5.67 33.21C5.67 33.2167 5.66 34.1533 5.64 36.02L6.37 36.01ZM12.0543 38.94C12.3476 38.94 12.8076 38.8 13.4343 38.52C13.561 38.6933 13.6276 38.8467 13.6343 38.98C13.2943 39.18 12.961 39.3367 12.6343 39.45C12.3076 39.5633 12.0743 39.62 11.9343 39.62C11.161 39.62 10.571 39.39 10.1643 38.93C9.75763 38.4633 9.5543 37.8133 9.5543 36.98C9.5543 36.1467 9.75096 35.4933 10.1443 35.02C10.5443 34.54 11.141 34.3 11.9343 34.3C12.5476 34.3 13.0143 34.52 13.3343 34.96C13.661 35.4 13.8243 35.99 13.8243 36.73C13.771 36.8233 13.7276 36.8867 13.6943 36.92L10.4743 36.87C10.481 37.5433 10.5976 38.0567 10.8243 38.41C11.0576 38.7633 11.4676 38.94 12.0543 38.94ZM12.9143 36.3C12.9143 35.86 12.8343 35.52 12.6743 35.28C12.5143 35.0333 12.2476 34.91 11.8743 34.91C11.501 34.91 11.1676 34.98 10.8743 35.12C10.6743 35.52 10.5476 35.93 10.4943 36.35C11.021 36.3433 11.8276 36.3267 12.9143 36.3ZM17.7515 34.3C18.3915 34.3 18.8548 34.46 19.1415 34.78C19.4282 35.0933 19.5715 35.5733 19.5715 36.22C19.5715 36.4067 19.5448 37.2733 19.4915 38.82L20.3315 38.9C20.3315 39.0867 20.2748 39.2867 20.1615 39.5H17.8615L17.8315 39.15C18.1382 39.0433 18.4382 38.9633 18.7315 38.91C18.6915 37.1633 18.6548 36.1933 18.6215 36C18.5948 35.8 18.5482 35.6267 18.4815 35.48C18.4148 35.3333 18.3148 35.23 18.1815 35.17C18.0482 35.11 17.8715 35.08 17.6515 35.08C17.2115 35.08 16.7848 35.1867 16.3715 35.4C16.3315 36.92 16.3048 38.06 16.2915 38.82L17.1315 38.9C17.1315 39.0867 17.0748 39.2867 16.9615 39.5H14.6615L14.6315 39.15C14.9382 39.0433 15.2382 38.9633 15.5315 38.91C15.4915 37.2167 15.4582 35.9633 15.4315 35.15C15.0648 35.13 14.7715 35.09 14.5515 35.03L14.5915 34.51C14.9515 34.41 15.4748 34.36 16.1615 34.36C16.2415 34.48 16.3015 34.6533 16.3415 34.88C16.6282 34.7267 16.9148 34.5933 17.2015 34.48C17.4948 34.36 17.6782 34.3 17.7515 34.3ZM23.3736 38.84C23.5669 38.84 23.7836 38.8 24.0236 38.72C24.2636 38.6333 24.4603 38.53 24.6136 38.41C24.5869 36.99 24.5636 35.9133 24.5436 35.18C24.1303 35.18 23.8236 35.14 23.6236 35.06L23.6636 34.54C24.2303 34.44 24.6736 34.39 24.9936 34.39C25.3203 34.39 25.5269 34.3967 25.6136 34.41C25.6136 34.53 25.5936 34.69 25.5536 34.89C25.5203 35.09 25.4969 35.2 25.4836 35.22L25.3636 38.79C25.7169 38.81 26.0036 38.85 26.2236 38.91L26.2036 39.42C25.9103 39.5133 25.6269 39.56 25.3536 39.56C25.0803 39.56 24.9136 39.5567 24.8536 39.55C24.7269 39.2967 24.6536 39.0633 24.6336 38.85C24.3069 39.0967 24.0036 39.2867 23.7236 39.42C23.4503 39.5533 23.2703 39.62 23.1836 39.62C22.5969 39.62 22.1703 39.4633 21.9036 39.15C21.6436 38.83 21.5136 38.3633 21.5136 37.75C21.5136 37.7433 21.5436 36.89 21.6036 35.19C21.2169 35.19 20.8603 35.1467 20.5336 35.06L20.5736 34.54C21.1403 34.44 21.5803 34.39 21.8936 34.39C22.2069 34.39 22.4069 34.3967 22.4936 34.41C22.4936 34.57 22.4736 34.7467 22.4336 34.94C22.3936 35.1333 22.3703 35.2267 22.3636 35.22L22.3736 37.38C22.3736 37.8867 22.4369 38.2567 22.5636 38.49C22.6903 38.7233 22.9603 38.84 23.3736 38.84ZM27.4809 38.88L27.4009 35.11H26.6309L26.6009 34.76C26.6675 34.7133 26.8609 34.6267 27.1809 34.5L28.0009 33.22C28.1342 33.2333 28.2375 33.2667 28.3109 33.32L28.3009 34.42C28.8009 34.42 29.2109 34.4533 29.5309 34.52C29.5309 34.7 29.4742 34.8967 29.3609 35.11H28.2809C28.2675 35.91 28.2542 37.1233 28.2409 38.75C28.6142 38.77 28.9875 38.8367 29.3609 38.95L29.3509 39.3C29.2575 39.36 29.0175 39.43 28.6309 39.51C28.2509 39.59 27.9375 39.63 27.6909 39.63C27.6575 39.5767 27.6142 39.4633 27.5609 39.29C27.5075 39.11 27.4809 38.9733 27.4809 38.88ZM32.7974 38.84C32.9908 38.84 33.2074 38.8 33.4474 38.72C33.6874 38.6333 33.8841 38.53 34.0374 38.41C34.0108 36.99 33.9874 35.9133 33.9674 35.18C33.5541 35.18 33.2474 35.14 33.0474 35.06L33.0874 34.54C33.6541 34.44 34.0974 34.39 34.4174 34.39C34.7441 34.39 34.9508 34.3967 35.0374 34.41C35.0374 34.53 35.0174 34.69 34.9774 34.89C34.9441 35.09 34.9208 35.2 34.9074 35.22L34.7874 38.79C35.1408 38.81 35.4274 38.85 35.6474 38.91L35.6274 39.42C35.3341 39.5133 35.0508 39.56 34.7774 39.56C34.5041 39.56 34.3374 39.5567 34.2774 39.55C34.1508 39.2967 34.0774 39.0633 34.0574 38.85C33.7308 39.0967 33.4274 39.2867 33.1474 39.42C32.8741 39.5533 32.6941 39.62 32.6074 39.62C32.0208 39.62 31.5941 39.4633 31.3274 39.15C31.0674 38.83 30.9374 38.3633 30.9374 37.75C30.9374 37.7433 30.9674 36.89 31.0274 35.19C30.6408 35.19 30.2841 35.1467 29.9574 35.06L29.9974 34.54C30.5641 34.44 31.0041 34.39 31.3174 34.39C31.6308 34.39 31.8308 34.3967 31.9174 34.41C31.9174 34.57 31.8974 34.7467 31.8574 34.94C31.8174 35.1333 31.7941 35.2267 31.7874 35.22L31.7974 37.38C31.7974 37.8867 31.8608 38.2567 31.9874 38.49C32.1141 38.7233 32.3841 38.84 32.7974 38.84ZM37.7347 38.99L37.6847 41.13L38.5547 41.2C38.5547 41.3867 38.498 41.5867 38.3847 41.8H36.0647L36.0347 41.45C36.3414 41.35 36.6414 41.2733 36.9347 41.22C36.8947 38.5 36.8614 36.4767 36.8347 35.15C36.5347 35.1433 36.2414 35.1033 35.9547 35.03L35.9947 34.51C36.3814 34.41 36.9214 34.36 37.6147 34.36C37.6747 34.4667 37.7314 34.6633 37.7847 34.95C38.638 34.5167 39.178 34.3 39.4047 34.3C40.0247 34.3 40.4847 34.5433 40.7847 35.03C41.0847 35.51 41.2347 36.1367 41.2347 36.91C41.2347 37.6767 41.0647 38.32 40.7247 38.84C40.3914 39.36 39.9047 39.62 39.2647 39.62C39.0247 39.62 38.7614 39.56 38.4747 39.44C38.1947 39.32 37.948 39.17 37.7347 38.99ZM39.2247 35.05C38.8114 35.05 38.3314 35.1967 37.7847 35.49C37.7714 36.73 37.758 37.66 37.7447 38.28C37.9114 38.4467 38.1314 38.6 38.4047 38.74C38.6847 38.8733 38.928 38.94 39.1347 38.94C39.9214 38.94 40.3147 38.2933 40.3147 37C40.3147 36.5067 40.258 36.12 40.1447 35.84C40.0314 35.5533 39.9014 35.35 39.7547 35.23C39.608 35.11 39.4314 35.05 39.2247 35.05Z" fill="black"/>
<path d="M16.75 25.8125V11.35C16.75 10.8702 16.9108 10.4698 17.2323 10.149C17.5538 9.82815 17.9542 9.66738 18.4333 9.66669H27.5677C28.0469 9.66669 28.4472 9.82745 28.7687 10.149C29.0903 10.4705 29.2507 10.8709 29.25 11.35V25.8125L23 23.1281L16.75 25.8125ZM17.7917 24.1979L23 21.9584L28.2083 24.1979V11.35C28.2083 11.1896 28.1417 11.0424 28.0083 10.9084C27.875 10.7743 27.7278 10.7077 27.5667 10.7084H18.4333C18.2729 10.7084 18.1257 10.775 17.9917 10.9084C17.8576 11.0417 17.791 11.1889 17.7917 11.35V24.1979Z" fill="black"/>
</svg>
