<svg width="46" height="46" viewBox="0 0 46 46" fill="none" xmlns="http://www.w3.org/2000/svg">
<path d="M12.61 33.19L13.66 38.82L14.57 38.91C14.57 39.09 14.5133 39.2867 14.4 39.5H12.1L12.07 39.15C12.27 39.0633 12.5167 38.9933 12.81 38.94L11.74 33.33L10.42 39.02H9.43L7.61 33.31L6.8 38.82L7.65 38.9C7.65 39.0867 7.59333 39.2867 7.48 39.5H5.18L5.15 39.15C5.44333 39.0433 5.73667 38.9633 6.03 38.91L6.91 33.11C6.50333 33.05 6.18 32.98 5.94 32.9L5.98 32.5H8.31L9.9 37.98H9.94L11.18 32.5H13.41C13.5233 32.7133 13.58 32.92 13.58 33.12C13.1467 33.1667 12.8233 33.19 12.61 33.19ZM17.3868 39.02C17.9468 39.02 18.3235 38.8467 18.5168 38.5C18.7168 38.1467 18.8168 37.6467 18.8168 37C18.8168 35.9733 18.5901 35.33 18.1368 35.07C17.9501 34.9633 17.6868 34.91 17.3468 34.91C17.0135 34.91 16.6968 34.98 16.3968 35.12C16.1301 35.6333 15.9968 36.23 15.9968 36.91C15.9968 37.5633 16.0835 38.0667 16.2568 38.42C16.4568 38.82 16.8335 39.02 17.3868 39.02ZM15.0768 37C15.0768 36.1533 15.2701 35.4933 15.6568 35.02C16.0435 34.54 16.6401 34.3 17.4468 34.3C18.2535 34.3 18.8368 34.52 19.1968 34.96C19.5568 35.3933 19.7368 36.0367 19.7368 36.89C19.7368 37.7433 19.5435 38.4133 19.1568 38.9C18.7768 39.3867 18.1968 39.63 17.4168 39.63C16.6368 39.63 16.0501 39.4033 15.6568 38.95C15.2701 38.4967 15.0768 37.8467 15.0768 37ZM25.3077 35.42C25.3343 35.6333 25.3477 35.88 25.3477 36.16C25.3477 36.44 25.321 37.3267 25.2677 38.82L26.1077 38.9C26.1077 39.0867 26.051 39.2867 25.9377 39.5H23.6377L23.6077 39.15C23.9143 39.0433 24.2143 38.9633 24.5077 38.91C24.4677 37.1367 24.431 36.15 24.3977 35.95C24.371 35.75 24.3243 35.5833 24.2577 35.45C24.191 35.31 24.0877 35.2133 23.9477 35.16C23.8077 35.1067 23.5943 35.08 23.3077 35.08C23.0277 35.08 22.6577 35.1867 22.1977 35.4C22.1577 36.92 22.131 38.06 22.1177 38.82L22.9577 38.9C22.9577 39.0867 22.901 39.2867 22.7877 39.5H20.4877L20.4577 39.15C20.7643 39.0433 21.0643 38.9633 21.3577 38.91C21.351 38.43 21.3343 37.7533 21.3077 36.88C21.281 36 21.2643 35.4233 21.2577 35.15C20.891 35.13 20.5977 35.09 20.3777 35.03L20.4177 34.51C20.7777 34.41 21.301 34.36 21.9877 34.36C22.081 34.5267 22.141 34.7 22.1677 34.88C22.461 34.7267 22.751 34.5933 23.0377 34.48C23.3243 34.36 23.5043 34.3 23.5777 34.3C24.3177 34.3 24.8343 34.5267 25.1277 34.98C25.4343 34.8133 25.751 34.66 26.0777 34.52C26.411 34.3733 26.611 34.3 26.6777 34.3C27.2843 34.3 27.7377 34.45 28.0377 34.75C28.3443 35.0433 28.4977 35.5267 28.4977 36.2C28.4977 36.4 28.471 37.2733 28.4177 38.82L29.2577 38.9C29.2577 39.0867 29.201 39.2867 29.0877 39.5H26.7877L26.7577 39.15C27.0643 39.0433 27.3643 38.9633 27.6577 38.91C27.631 37.8567 27.6077 37.06 27.5877 36.52C27.5677 35.98 27.491 35.6067 27.3577 35.4C27.2243 35.1867 26.9577 35.08 26.5577 35.08C26.1577 35.08 25.741 35.1933 25.3077 35.42ZM32.2555 38.94C32.5488 38.94 33.0088 38.8 33.6355 38.52C33.7621 38.6933 33.8288 38.8467 33.8355 38.98C33.4955 39.18 33.1621 39.3367 32.8355 39.45C32.5088 39.5633 32.2755 39.62 32.1355 39.62C31.3621 39.62 30.7721 39.39 30.3655 38.93C29.9588 38.4633 29.7555 37.8133 29.7555 36.98C29.7555 36.1467 29.9521 35.4933 30.3455 35.02C30.7455 34.54 31.3421 34.3 32.1355 34.3C32.7488 34.3 33.2155 34.52 33.5355 34.96C33.8621 35.4 34.0255 35.99 34.0255 36.73C33.9721 36.8233 33.9288 36.8867 33.8955 36.92L30.6755 36.87C30.6821 37.5433 30.7988 38.0567 31.0255 38.41C31.2588 38.7633 31.6688 38.94 32.2555 38.94ZM33.1155 36.3C33.1155 35.86 33.0355 35.52 32.8755 35.28C32.7155 35.0333 32.4488 34.91 32.0755 34.91C31.7021 34.91 31.3688 34.98 31.0755 35.12C30.8755 35.52 30.7488 35.93 30.6955 36.35C31.2221 36.3433 32.0288 36.3267 33.1155 36.3ZM37.9527 34.3C38.5927 34.3 39.056 34.46 39.3427 34.78C39.6293 35.0933 39.7727 35.5733 39.7727 36.22C39.7727 36.4067 39.746 37.2733 39.6927 38.82L40.5327 38.9C40.5327 39.0867 40.476 39.2867 40.3627 39.5H38.0627L38.0327 39.15C38.3393 39.0433 38.6393 38.9633 38.9327 38.91C38.8927 37.1633 38.856 36.1933 38.8227 36C38.796 35.8 38.7493 35.6267 38.6827 35.48C38.616 35.3333 38.516 35.23 38.3827 35.17C38.2493 35.11 38.0727 35.08 37.8527 35.08C37.4127 35.08 36.986 35.1867 36.5727 35.4C36.5327 36.92 36.506 38.06 36.4927 38.82L37.3327 38.9C37.3327 39.0867 37.276 39.2867 37.1627 39.5H34.8627L34.8327 39.15C35.1393 39.0433 35.4393 38.9633 35.7327 38.91C35.6927 37.2167 35.6593 35.9633 35.6327 35.15C35.266 35.13 34.9727 35.09 34.7527 35.03L34.7927 34.51C35.1527 34.41 35.676 34.36 36.3627 34.36C36.4427 34.48 36.5027 34.6533 36.5427 34.88C36.8293 34.7267 37.116 34.5933 37.4027 34.48C37.696 34.36 37.8793 34.3 37.9527 34.3Z" fill="black"/>
<path d="M14.6666 20.1667L19.4437 15.3896C19.8344 14.999 20.3642 14.7796 20.9166 14.7796C21.4691 14.7796 21.9989 14.999 22.3895 15.3896L27.1666 20.1667M25.0833 18.0834L26.7354 16.4313C27.1261 16.0407 27.6559 15.8213 28.2083 15.8213C28.7607 15.8213 29.2905 16.0407 29.6812 16.4313L31.3333 18.0834M25.0833 11.8334H25.0937M16.75 24.3334H29.25C29.8025 24.3334 30.3324 24.1139 30.7231 23.7232C31.1138 23.3325 31.3333 22.8026 31.3333 22.25V9.75002C31.3333 9.19749 31.1138 8.66758 30.7231 8.27688C30.3324 7.88618 29.8025 7.66669 29.25 7.66669H16.75C16.1974 7.66669 15.6675 7.88618 15.2768 8.27688C14.8861 8.66758 14.6666 9.19749 14.6666 9.75002V22.25C14.6666 22.8026 14.8861 23.3325 15.2768 23.7232C15.6675 24.1139 16.1974 24.3334 16.75 24.3334Z" stroke="black" stroke-width="2" stroke-linecap="round" stroke-linejoin="round"/>
</svg>
